<?xml version="1.0" standalone="no"?>
<!DOCTYPE svg PUBLIC "-//W3C//DTD SVG 20010904//EN"
 "http://www.w3.org/TR/2001/REC-SVG-20010904/DTD/svg10.dtd">
<svg version="1.0" xmlns="http://www.w3.org/2000/svg"
 width="450.000000pt" height="486.000000pt" viewBox="0 0 450.000000 486.000000"
 preserveAspectRatio="xMidYMid meet">

<g transform="translate(0.000000,486.000000) scale(0.100000,-0.100000)"
fill="#000000" stroke="none">
<path d="M810 4230 l0 -540 -180 0 -180 0 0 -360 0 -360 -180 0 -180 0 0 -540
0 -540 180 0 180 0 0 -360 0 -360 180 0 180 0 0 -540 0 -540 1260 0 1260 0 0
540 0 540 180 0 180 0 0 360 0 360 180 0 180 0 0 180 0 180 180 0 180 0 0 180
0 180 -180 0 -180 0 0 180 0 180 -180 0 -180 0 0 360 0 360 -180 0 -180 0 0
540 0 540 -1260 0 -1260 0 0 -540z m1080 -1080 l0 -900 180 0 180 0 0 900 0
900 180 0 180 0 0 -180 0 -180 360 0 360 0 0 -360 0 -360 180 0 180 0 0 -540
0 -540 -180 0 -180 0 0 -360 0 -360 -360 0 -360 0 0 -180 0 -180 -540 0 -540
0 0 180 0 180 -360 0 -360 0 0 360 0 360 -180 0 -180 0 0 540 0 540 180 0 180
0 0 360 0 360 360 0 360 0 0 180 0 180 180 0 180 0 0 -900z"/>
</g>
</svg>
