<?xml version="1.0" encoding="UTF-8"?>
<svg xmlns="http://www.w3.org/2000/svg" xmlns:xlink="http://www.w3.org/1999/xlink" width="375pt" height="374.999991pt" viewBox="0 0 375 374.999991" version="1.2">
<g id="surface1">
<path style=" stroke:none;fill-rule:nonzero;fill:rgb(85.879517%,79.219055%,18.03894%);fill-opacity:1;" d="M 339.375 226.5 C 319.125 252.5 299 275 279 294 C 259 313 234.625 328.5 205.875 340.5 C 177.125 352.5 148.25 351.375 119.25 337.125 C 90.25 322.875 72.75 300.75 66.75 270.75 C 60.75 240.75 50.5 210.875 36 181.125 C 21.5 151.375 25.375 124.5 47.625 100.5 C 69.875 76.5 95.375 61.5 124.125 55.5 C 152.875 49.5 182.75 43.375 213.75 37.125 C 244.75 30.875 269.625 40.5 288.375 66 C 307.125 91.5 325.375 118.125 343.125 145.875 C 360.875 173.625 359.625 200.5 339.375 226.5 Z M 339.375 226.5 "/>
<path style=" stroke:none;fill-rule:nonzero;fill:rgb(0%,0%,0%);fill-opacity:1;" d="M 173.625 89.398438 C 166.277344 90.078125 155.867188 91.78125 148.453125 93.550781 C 131.378906 97.5 107.707031 107.164062 98.929688 113.628906 L 96.753906 115.265625 L 96.890625 171.554688 L 97.09375 227.847656 L 122.605469 228.050781 C 136.617188 228.121094 148.25 228.460938 148.523438 228.734375 C 148.792969 229.003906 150.019531 238.398438 151.175781 249.628906 C 152.398438 260.859375 153.691406 270.457031 154.03125 270.867188 C 155.324219 272.5 156.820312 271.75 164.574219 265.964844 L 172.332031 260.113281 L 179.882812 265.964844 C 184.03125 269.164062 187.976562 271.75 188.589844 271.75 C 189.199219 271.75 193.144531 269.097656 197.363281 265.898438 L 204.984375 260.042969 L 212.738281 265.898438 C 220.628906 271.820312 221.921875 272.433594 223.144531 270.867188 C 223.484375 270.457031 224.777344 260.859375 226.003906 249.628906 C 227.160156 238.398438 228.382812 229.003906 228.65625 228.734375 C 228.929688 228.460938 240.558594 228.121094 254.574219 228.050781 L 280.082031 227.847656 L 280.285156 171.625 C 280.421875 118.734375 280.355469 115.332031 279.265625 114.3125 C 278.585938 113.765625 274.503906 111.453125 270.21875 109.136719 C 239.878906 93.277344 205.867188 86.335938 173.625 89.398438 Z M 215.457031 95.386719 C 228.042969 97.5 238.519531 100.492188 252.125 105.667969 C 254.371094 106.484375 260.492188 109.410156 265.730469 112.066406 L 275.320312 116.898438 L 275.523438 170.46875 L 275.660156 224.105469 L 228.65625 224.105469 L 228.996094 221.175781 C 229.269531 219.613281 230.015625 212.464844 230.765625 205.386719 C 231.511719 198.238281 232.328125 191.296875 232.53125 189.867188 L 232.941406 187.347656 L 239.675781 187.347656 C 244.4375 187.347656 247.089844 187.007812 248.449219 186.328125 C 251.308594 184.898438 252.738281 181.699219 252.328125 178.023438 C 251.714844 172.304688 248.179688 170.332031 238.792969 170.332031 L 232.464844 170.332031 L 232.667969 144.875 C 232.804688 122.34375 232.738281 119.28125 231.785156 118.328125 C 230.765625 117.375 226.140625 117.238281 188.25 117.238281 C 146.957031 117.238281 145.734375 117.304688 145.050781 118.53125 C 144.644531 119.417969 144.371094 129.011719 144.371094 145.078125 L 144.371094 170.332031 L 138.25 170.332031 C 129 170.332031 125.460938 172.371094 124.847656 178.023438 C 124.441406 181.699219 125.871094 184.898438 128.726562 186.328125 C 130.085938 187.007812 132.738281 187.347656 137.570312 187.347656 C 141.3125 187.347656 144.371094 187.414062 144.371094 187.484375 C 144.371094 187.621094 145.257812 195.652344 146.34375 205.386719 C 147.433594 215.121094 148.183594 223.289062 147.976562 223.558594 C 147.839844 223.898438 137.296875 224.105469 124.578125 224.105469 L 101.515625 224.105469 L 101.652344 170.535156 L 101.855469 116.964844 L 105.9375 114.652344 C 121.242188 105.871094 144.507812 98.109375 164.101562 95.183594 C 174.847656 93.550781 175.527344 93.550781 191.988281 93.753906 C 203.621094 93.890625 209.269531 94.300781 215.457031 95.386719 Z M 228.042969 146.167969 L 228.042969 170.332031 L 149.132812 170.332031 L 149.132812 122.003906 L 228.042969 122.003906 Z M 246.546875 175.914062 C 248.585938 177.546875 248.65625 179.722656 246.820312 181.5625 L 245.117188 183.261719 L 132.058594 183.261719 L 130.359375 181.5625 C 128.523438 179.722656 128.589844 177.546875 130.632812 175.914062 C 131.449219 175.300781 144.101562 175.09375 188.589844 175.09375 C 233.078125 175.09375 245.730469 175.300781 246.546875 175.914062 Z M 181.785156 187.824219 C 181.71875 188.4375 168.65625 198.238281 167.910156 198.238281 C 167.296875 198.238281 153.894531 188.097656 153.894531 187.6875 C 153.894531 187.484375 160.152344 187.347656 167.839844 187.347656 C 175.527344 187.347656 181.785156 187.550781 181.785156 187.824219 Z M 222.261719 187.960938 C 221.851562 188.300781 218.65625 190.75 215.117188 193.335938 L 208.722656 198.101562 L 202.058594 192.996094 C 198.382812 190.273438 195.390625 187.824219 195.390625 187.6875 C 195.390625 187.484375 201.582031 187.347656 209.132812 187.347656 C 217.429688 187.347656 222.601562 187.621094 222.261719 187.960938 Z M 196.683594 207.15625 C 190.355469 211.921875 188.113281 213.214844 187.226562 212.738281 C 185.460938 211.921875 172.332031 202.050781 172.261719 201.574219 C 172.261719 201.300781 175.9375 198.304688 180.492188 194.972656 L 188.726562 188.777344 L 196.820312 194.902344 L 204.914062 201.03125 Z M 227.769531 191.226562 C 227.636719 191.910156 227.089844 196.402344 226.613281 201.300781 C 226.140625 206.132812 225.730469 210.285156 225.59375 210.355469 C 225.253906 210.832031 213.011719 201.503906 213.214844 200.894531 C 213.484375 200.210938 226.820312 190.136719 227.566406 190.070312 C 227.90625 190.070312 227.976562 190.613281 227.769531 191.226562 Z M 153.761719 193.609375 C 155.867188 195.242188 159.066406 197.625 160.835938 199.054688 L 164.101562 201.503906 L 158.25 205.863281 C 155.050781 208.246094 152.261719 210.082031 151.992188 210.015625 C 151.515625 209.878906 149.203125 190.75 149.679688 190.75 C 149.746094 190.75 151.652344 192.042969 153.761719 193.609375 Z M 217.023438 210.082031 C 220.832031 212.941406 223.960938 215.460938 223.960938 215.664062 C 223.960938 215.800781 220.21875 218.726562 215.730469 222.0625 C 210.492188 225.941406 207.160156 227.984375 206.683594 227.644531 C 206.273438 227.304688 202.804688 224.648438 198.929688 221.789062 L 191.921875 216.480469 L 200.289062 210.21875 C 204.914062 206.679688 208.996094 204.09375 209.335938 204.363281 C 209.746094 204.636719 213.144531 207.15625 217.023438 210.082031 Z M 175.800781 210.21875 C 180.015625 213.417969 183.554688 216.277344 183.621094 216.480469 C 183.757812 216.890625 170.835938 226.828125 169.472656 227.371094 C 168.589844 227.710938 153.078125 215.800781 153.691406 215.1875 C 154.234375 214.644531 167.773438 204.433594 167.976562 204.363281 C 168.046875 204.363281 171.582031 207.019531 175.800781 210.21875 Z M 196.34375 236.492188 C 190.832031 240.644531 188.859375 241.800781 187.976562 241.394531 C 185.9375 240.371094 173.691406 231.25 173.625 230.773438 C 173.625 230.503906 176.886719 227.847656 180.832031 224.851562 L 188.042969 219.40625 L 195.800781 225.261719 L 203.554688 231.046875 Z M 159.132812 226.011719 L 165.324219 230.640625 L 160.222656 234.585938 C 157.433594 236.695312 154.984375 238.398438 154.847656 238.261719 C 154.710938 238.125 154.304688 235.132812 153.894531 231.59375 C 153.488281 228.050781 153.078125 224.308594 152.875 223.21875 C 152.738281 222.199219 152.671875 221.382812 152.808594 221.382812 C 152.875 221.382812 155.734375 223.492188 159.132812 226.011719 Z M 223.484375 230.230469 C 222.941406 234.925781 222.398438 238.808594 222.261719 238.941406 C 221.921875 239.285156 211.71875 231.523438 211.71875 230.980469 C 211.785156 230.570312 224.097656 221.3125 224.300781 221.585938 C 224.371094 221.652344 224.03125 225.535156 223.484375 230.230469 Z M 176.886719 239.148438 C 180.902344 242.140625 184.234375 244.796875 184.304688 245.070312 C 184.4375 245.546875 173.828125 253.441406 172.535156 253.851562 C 172.058594 253.984375 159.679688 245.136719 157.773438 243.164062 C 157.296875 242.753906 168.316406 233.632812 169.335938 233.632812 C 169.472656 233.632812 172.875 236.085938 176.886719 239.148438 Z M 213.484375 238.464844 C 216.683594 240.78125 219.132812 242.890625 219.0625 243.230469 C 218.792969 243.84375 205.460938 254.054688 204.847656 254.054688 C 204.644531 254.054688 201.785156 252.011719 198.519531 249.5625 L 192.601562 245.136719 L 199.609375 239.761719 C 203.484375 236.832031 206.886719 234.382812 207.160156 234.382812 C 207.5 234.316406 210.355469 236.21875 213.484375 238.464844 Z M 164.304688 253.984375 C 166.414062 255.621094 168.179688 257.050781 168.179688 257.183594 C 168.179688 257.660156 157.976562 265.148438 157.707031 264.878906 C 157.433594 264.605469 155.9375 251.398438 155.9375 249.152344 C 155.9375 247.792969 156.003906 247.792969 158.179688 249.425781 C 159.335938 250.308594 162.125 252.421875 164.304688 253.984375 Z M 194.167969 252.082031 C 197.296875 254.328125 200.085938 256.4375 200.355469 256.777344 C 200.96875 257.320312 189.882812 266.304688 188.589844 266.304688 C 187.773438 266.304688 176.140625 257.457031 176.480469 257.050781 C 176.886719 256.707031 188.25 247.996094 188.382812 247.996094 C 188.519531 247.929688 191.105469 249.765625 194.167969 252.082031 Z M 220.5625 257.183594 C 220.085938 261.472656 219.609375 264.945312 219.402344 264.945312 C 218.453125 264.945312 209.0625 257.117188 209.472656 256.707031 C 211.71875 254.460938 220.96875 248.132812 221.171875 248.675781 C 221.308594 249.085938 221.035156 252.898438 220.5625 257.183594 Z M 220.5625 257.183594 "/>
</g>
</svg>
