<svg xmlns="http://www.w3.org/2000/svg" data-name="Layer 1" viewBox="0 0 100 125" x="0px" y="0px"><path d="M68,44.24a11.62,11.62,0,0,0,11.6-11.62V32.1A11.61,11.61,0,0,0,68,20.5h-.54a11.61,11.61,0,0,0-11.6,11.6v9.14H44.17V32.1a11.61,11.61,0,0,0-11.6-11.6H32a11.61,11.61,0,0,0-11.6,11.6v.52A11.62,11.62,0,0,0,32,44.24h9.14V55.76H32a11.61,11.61,0,0,0-11.6,11.6v.52A11.62,11.62,0,0,0,32,79.5h.54a11.63,11.63,0,0,0,11.6-11.62v-9H55.83v9A11.63,11.63,0,0,0,67.43,79.5H68a11.62,11.62,0,0,0,11.6-11.62v-.52A11.61,11.61,0,0,0,68,55.76H58.83V44.24ZM41.17,67.88a8.62,8.62,0,0,1-8.6,8.62H32a8.62,8.62,0,0,1-8.6-8.62v-.52a8.61,8.61,0,0,1,8.6-8.6h9.14ZM58.83,32.1a8.61,8.61,0,0,1,8.6-8.6H68a8.61,8.61,0,0,1,8.6,8.6v.52A8.62,8.62,0,0,1,68,41.24H58.83Zm-35.4.52V32.1A8.61,8.61,0,0,1,32,23.5h.54a8.61,8.61,0,0,1,8.6,8.6v9.14H32A8.62,8.62,0,0,1,23.43,32.62ZM55.83,55.9H44.17V44.24H55.83ZM68,58.76a8.61,8.61,0,0,1,8.6,8.6v.52A8.62,8.62,0,0,1,68,76.5h-.54a8.62,8.62,0,0,1-8.6-8.62V58.76Z"/></svg>