<svg xmlns="http://www.w3.org/2000/svg" version="1.0" preserveAspectRatio="xMidYMid meet" viewBox="249 394.06 269.88 268.94">

<g transform="translate(0.000000,1192.000000) scale(0.100000,-0.100000)" fill="#000000" stroke="none">
<path d="M3620 7969 c-108 -10 -261 -35 -370 -61 -251 -58 -599 -200 -728 -295 l-32 -24 2 -827 3 -827 375 -3 c206 -1 377 -6 381 -10 4 -4 22 -142 39 -307 18 -165 37 -306 42 -312 19 -24 41 -13 155 72 l114 86 111 -86 c61 -47 119 -85 128 -85 9 0 67 39 129 86 l112 86 114 -86 c116 -87 135 -96 153 -73 5 6 24 147 42 312 17 165 35 303 39 307 4 4 175 9 381 10 l375 3 3 826 c2 777 1 827 -15 842 -10 8 -70 42 -133 76 -446 233 -946 335 -1420 290z m615 -88 c185 -31 339 -75 539 -151 33 -12 123 -55 200 -94 l141 -71 3 -787 2 -788 -346 0 -345 0 5 43 c4 23 15 128 26 232 11 105 23 207 26 228 l6 37 99 0 c70 0 109 5 129 15 42 21 63 68 57 122 -9 84 -61 113 -199 113 l-93 0 3 374 c2 331 1 376 -13 390 -15 14 -83 16 -640 16 -607 0 -625 -1 -635 -19 -6 -13 -10 -154 -10 -390 l0 -371 -90 0 c-136 0 -188 -30 -197 -113 -6 -54 15 -101 57 -122 20 -10 59 -15 130 -15 55 0 100 -1 100 -2 0 -2 13 -120 29 -263 16 -143 27 -263 24 -267 -2 -5 -157 -8 -344 -8 l-339 0 2 787 3 787 60 34 c225 129 567 243 855 286 158 24 168 24 410 21 171 -2 254 -8 345 -24z m185 -746 l0 -355 -580 0 -580 0 0 355 0 355 580 0 580 0 0 -355z m272 -437 c30 -24 31 -56 4 -83 l-25 -25 -831 0 -831 0 -25 25 c-27 27 -26 59 4 83 12 9 198 12 852 12 654 0 840 -3 852 -12z m-952 -175 c-1 -9 -193 -153 -204 -153 -9 0 -206 149 -206 155 0 3 92 5 205 5 113 0 205 -3 205 -7z m595 -2 c-6 -5 -53 -41 -105 -79 l-94 -70 -98 75 c-54 40 -98 76 -98 78 0 3 91 5 202 5 122 0 198 -4 193 -9z m-376 -282 c-93 -70 -126 -89 -139 -82 -26 12 -219 157 -220 164 0 4 54 48 121 97 l121 91 119 -90 119 -90 -121 -90z m457 234 c-2 -10 -10 -76 -17 -148 -7 -71 -13 -132 -15 -133 -5 -7 -185 130 -182 139 4 10 200 158 211 159 5 0 6 -8 3 -17z m-1088 -35 c31 -24 78 -59 104 -80 l48 -36 -86 -64 c-47 -35 -88 -62 -92 -61 -7 2 -41 283 -34 283 1 0 29 -19 60 -42z m930 -242 c56 -42 102 -79 102 -82 0 -2 -55 -45 -121 -94 -77 -57 -126 -87 -133 -82 -6 5 -57 44 -114 86 l-103 78 123 92 c68 52 128 90 133 86 6 -4 56 -41 113 -84z m-606 -2 c62 -47 114 -89 115 -92 2 -6 -188 -152 -208 -160 -13 -5 -241 170 -232 179 8 8 207 158 210 159 1 0 53 -39 115 -86z m302 -386 c-81 -61 -110 -78 -123 -72 -30 15 -210 149 -211 156 0 4 48 43 106 87 l106 80 114 -86 114 -85 -106 -80z m-547 154 l91 -68 -75 -58 c-41 -31 -77 -56 -79 -54 -2 2 -8 46 -14 98 -6 52 -12 107 -15 123 -2 15 -3 27 -1 27 1 0 43 -31 93 -68z m946 -62 c-8 -69 -16 -126 -18 -128 -5 -5 -155 109 -155 117 1 6 182 142 185 138 1 -1 -4 -58 -12 -127z m-685 -131 c59 -44 108 -83 109 -87 2 -7 -154 -123 -173 -129 -7 -2 -189 128 -217 157 -7 6 155 140 170 140 2 0 52 -36 111 -81z m538 10 c47 -34 83 -65 82 -70 -4 -9 -200 -159 -209 -159 -3 0 -45 30 -93 66 l-87 65 103 79 c57 43 107 79 111 79 5 1 47 -27 93 -60z m-723 -228 c31 -24 57 -45 57 -47 0 -7 -150 -117 -154 -113 -4 4 -26 198 -26 231 0 20 1 20 33 -4 17 -13 58 -44 90 -67z m439 28 c46 -33 87 -64 91 -69 9 -8 -154 -140 -173 -140 -12 0 -183 130 -178 136 6 5 173 133 175 133 2 1 40 -26 85 -60z m388 -75 c-7 -63 -14 -114 -17 -114 -14 0 -152 115 -146 121 33 33 169 126 172 118 2 -6 -2 -62 -9 -125z"/>
</g>
</svg>